<svg width="125" height="12" viewBox="0 0 125 12" fill="none" xmlns="http://www.w3.org/2000/svg">
<path d="M0.66 8.34L1.548 7.968V1.872L0.66 1.524V0.84H5.544C6.272 0.84 6.808 1.016 7.152 1.368C7.504 1.712 7.68 2.2 7.68 2.832C7.68 3.384 7.564 3.832 7.332 4.176C7.108 4.512 6.784 4.736 6.36 4.848C6.808 4.92 7.16 5.124 7.416 5.46C7.672 5.788 7.8 6.264 7.8 6.888C7.8 7.584 7.624 8.112 7.272 8.472C6.92 8.824 6.4 9 5.712 9H0.66V8.34ZM5.316 4.464C5.78 4.464 6.108 4.36 6.3 4.152C6.5 3.936 6.6 3.58 6.6 3.084C6.6 2.596 6.508 2.244 6.324 2.028C6.14 1.812 5.836 1.704 5.412 1.704H2.58V4.464H5.316ZM5.508 8.136C5.932 8.136 6.24 8.028 6.432 7.812C6.624 7.588 6.72 7.228 6.72 6.732C6.72 6.228 6.62 5.868 6.42 5.652C6.22 5.436 5.884 5.328 5.412 5.328H2.58V8.136H5.508ZM10.8955 7.98L11.7115 8.34V9H9.07153V8.34L9.88753 7.98V1.5L9.07153 1.164V0.48H10.8955V7.98ZM15.6689 2.808C16.5889 2.808 17.3249 3.064 17.8769 3.576C18.4369 4.08 18.7169 4.884 18.7169 5.988C18.7169 7.092 18.4369 7.9 17.8769 8.412C17.3249 8.916 16.5889 9.168 15.6689 9.168C14.7489 9.168 14.0089 8.916 13.4489 8.412C12.8969 7.9 12.6209 7.092 12.6209 5.988C12.6209 4.884 12.8969 4.08 13.4489 3.576C14.0089 3.064 14.7489 2.808 15.6689 2.808ZM15.6689 3.672C15.1889 3.672 14.8049 3.74 14.5169 3.876C14.2369 4.012 14.0249 4.248 13.8809 4.584C13.7449 4.92 13.6769 5.388 13.6769 5.988C13.6769 6.588 13.7449 7.056 13.8809 7.392C14.0249 7.728 14.2369 7.964 14.5169 8.1C14.8049 8.236 15.1889 8.304 15.6689 8.304C16.1489 8.304 16.5289 8.236 16.8089 8.1C17.0969 7.964 17.3089 7.728 17.4449 7.392C17.5889 7.056 17.6609 6.588 17.6609 5.988C17.6609 5.388 17.5889 4.92 17.4449 4.584C17.3089 4.248 17.0969 4.012 16.8089 3.876C16.5289 3.74 16.1489 3.672 15.6689 3.672ZM22.903 2.808C23.567 2.808 24.035 2.892 24.307 3.06C24.579 3.228 24.715 3.496 24.715 3.864C24.715 4.512 24.331 4.836 23.563 4.836L23.035 3.636C22.403 3.636 21.927 3.708 21.607 3.852C21.287 3.996 21.063 4.232 20.935 4.56C20.815 4.88 20.755 5.348 20.755 5.964C20.755 6.596 20.823 7.08 20.959 7.416C21.103 7.752 21.319 7.984 21.607 8.112C21.903 8.24 22.303 8.304 22.807 8.304C23.151 8.304 23.463 8.284 23.743 8.244C24.023 8.196 24.315 8.116 24.619 8.004V8.868C24.371 8.964 24.079 9.036 23.743 9.084C23.415 9.14 23.087 9.168 22.759 9.168C21.767 9.168 21.007 8.932 20.479 8.46C19.959 7.98 19.699 7.16 19.699 6C19.699 4.872 19.963 4.06 20.491 3.564C21.027 3.06 21.831 2.808 22.903 2.808ZM32.7913 8.34V9H31.4353L28.9033 6.036L27.5713 7.02V7.98L28.3873 8.34V9H25.7473V8.34L26.5633 7.98V1.5L25.7473 1.164V0.48H27.5713V5.976L30.4033 3.924L29.4073 3.66V2.976H32.4193V3.66L31.6033 4.056L29.7193 5.448L31.9153 7.98L32.7913 8.34ZM36.6726 2.808C37.3366 2.808 37.8046 2.892 38.0766 3.06C38.3486 3.228 38.4846 3.496 38.4846 3.864C38.4846 4.512 38.1006 4.836 37.3326 4.836L36.8046 3.636C36.1726 3.636 35.6966 3.708 35.3766 3.852C35.0566 3.996 34.8326 4.232 34.7046 4.56C34.5846 4.88 34.5246 5.348 34.5246 5.964C34.5246 6.596 34.5926 7.08 34.7286 7.416C34.8726 7.752 35.0886 7.984 35.3766 8.112C35.6726 8.24 36.0726 8.304 36.5766 8.304C36.9206 8.304 37.2326 8.284 37.5126 8.244C37.7926 8.196 38.0846 8.116 38.3886 8.004V8.868C38.1406 8.964 37.8486 9.036 37.5126 9.084C37.1846 9.14 36.8566 9.168 36.5286 9.168C35.5366 9.168 34.7766 8.932 34.2486 8.46C33.7286 7.98 33.4686 7.16 33.4686 6C33.4686 4.872 33.7326 4.06 34.2606 3.564C34.7966 3.06 35.6006 2.808 36.6726 2.808ZM46.5008 8.34V9H44.6768V5.028C44.6768 4.556 44.5608 4.216 44.3288 4.008C44.1048 3.792 43.7728 3.684 43.3328 3.684C43.0528 3.684 42.7768 3.72 42.5048 3.792C42.2408 3.864 41.8528 3.992 41.3408 4.176V7.98L42.1568 8.34V9H39.5168V8.34L40.3328 7.98V1.5L39.5168 1.164V0.48H41.3408V3.396C41.7488 3.188 42.1368 3.04 42.5048 2.952C42.8808 2.856 43.2648 2.808 43.6568 2.808C44.1608 2.808 44.5608 2.888 44.8568 3.048C45.1528 3.2 45.3648 3.448 45.4928 3.792C45.6208 4.128 45.6848 4.584 45.6848 5.16V7.98L46.5008 8.34ZM53.8219 8.34V9H52.3939L52.0819 8.136C51.7539 8.472 51.3979 8.72 51.0139 8.88C50.6379 9.04 50.2139 9.12 49.7419 9.12C48.9739 9.12 48.4059 8.972 48.0379 8.676C47.6699 8.38 47.4859 7.9 47.4859 7.236C47.4859 6.532 47.7059 6.024 48.1459 5.712C48.5859 5.392 49.2939 5.232 50.2699 5.232C50.6539 5.232 50.9899 5.268 51.2779 5.34C51.5739 5.404 51.8139 5.484 51.9979 5.58V5.112C51.9979 4.744 51.9499 4.46 51.8539 4.26C51.7659 4.052 51.6019 3.904 51.3619 3.816C51.1299 3.72 50.7899 3.672 50.3419 3.672C49.5339 3.672 48.6939 3.768 47.8219 3.96V3.096C48.7099 2.904 49.5579 2.808 50.3659 2.808C51.1179 2.808 51.6819 2.884 52.0579 3.036C52.4419 3.188 52.6939 3.408 52.8139 3.696C52.9419 3.984 53.0059 4.384 53.0059 4.896V7.98L53.8219 8.34ZM48.5419 7.164C48.5419 7.556 48.6379 7.836 48.8299 8.004C49.0299 8.172 49.3899 8.256 49.9099 8.256C50.2939 8.256 50.6619 8.188 51.0139 8.052C51.3739 7.908 51.7019 7.712 51.9979 7.464V6.264C51.5499 6.136 51.0099 6.072 50.3779 6.072C49.6819 6.072 49.2019 6.16 48.9379 6.336C48.6739 6.512 48.5419 6.788 48.5419 7.164ZM56.0221 0.348C56.2701 0.348 56.4661 0.42 56.6101 0.564C56.7621 0.707999 56.8381 0.911999 56.8381 1.176C56.8381 1.44 56.7621 1.644 56.6101 1.788C56.4661 1.932 56.2701 2.004 56.0221 2.004C55.7741 2.004 55.5741 1.932 55.4221 1.788C55.2781 1.644 55.2061 1.44 55.2061 1.176C55.2061 0.911999 55.2781 0.707999 55.4221 0.564C55.5741 0.42 55.7741 0.348 56.0221 0.348ZM56.6221 7.98L57.4381 8.34V9H54.7981V8.34L55.6141 7.98V3.996L54.7981 3.66V2.976H56.6221V7.98ZM65.3915 8.34V9H63.5675V5.028C63.5675 4.556 63.4515 4.216 63.2195 4.008C62.9955 3.792 62.6635 3.684 62.2235 3.684C61.9435 3.684 61.6675 3.72 61.3955 3.792C61.1315 3.864 60.7435 3.992 60.2315 4.176V7.98L61.1675 8.34V9H58.4075V8.34L59.2235 7.98V3.996L58.4075 3.66V2.976H59.7395L60.0515 3.468C60.4995 3.236 60.9235 3.068 61.3235 2.964C61.7235 2.86 62.1315 2.808 62.5475 2.808C63.0515 2.808 63.4515 2.888 63.7475 3.048C64.0435 3.2 64.2555 3.448 64.3835 3.792C64.5115 4.128 64.5755 4.584 64.5755 5.16V7.98L65.3915 8.34ZM77.568 8.34V9H74.808V8.34L75.648 8.016L75 6.252H71.46L70.8 8.028L71.652 8.34V9H69.096V8.34L69.924 7.968L72.66 0.744H74.004L76.74 7.956L77.568 8.34ZM74.688 5.4L73.236 1.464L71.772 5.4H74.688ZM81.239 2.808C81.903 2.808 82.371 2.892 82.643 3.06C82.915 3.228 83.051 3.496 83.051 3.864C83.051 4.512 82.667 4.836 81.899 4.836L81.371 3.636C80.739 3.636 80.263 3.708 79.943 3.852C79.623 3.996 79.399 4.232 79.271 4.56C79.151 4.88 79.091 5.348 79.091 5.964C79.091 6.596 79.159 7.08 79.295 7.416C79.439 7.752 79.655 7.984 79.943 8.112C80.239 8.24 80.639 8.304 81.143 8.304C81.487 8.304 81.799 8.284 82.079 8.244C82.359 8.196 82.651 8.116 82.955 8.004V8.868C82.707 8.964 82.415 9.036 82.079 9.084C81.751 9.14 81.423 9.168 81.095 9.168C80.103 9.168 79.343 8.932 78.815 8.46C78.295 7.98 78.035 7.16 78.035 6C78.035 4.872 78.299 4.06 78.827 3.564C79.363 3.06 80.167 2.808 81.239 2.808ZM90.4313 8.34V9H89.0033L88.6913 8.136C88.3633 8.472 88.0073 8.72 87.6233 8.88C87.2473 9.04 86.8233 9.12 86.3513 9.12C85.5833 9.12 85.0153 8.972 84.6473 8.676C84.2793 8.38 84.0953 7.9 84.0953 7.236C84.0953 6.532 84.3153 6.024 84.7553 5.712C85.1953 5.392 85.9033 5.232 86.8793 5.232C87.2633 5.232 87.5993 5.268 87.8873 5.34C88.1833 5.404 88.4233 5.484 88.6073 5.58V5.112C88.6073 4.744 88.5593 4.46 88.4633 4.26C88.3753 4.052 88.2113 3.904 87.9713 3.816C87.7393 3.72 87.3993 3.672 86.9513 3.672C86.1433 3.672 85.3033 3.768 84.4313 3.96V3.096C85.3193 2.904 86.1673 2.808 86.9753 2.808C87.7273 2.808 88.2913 2.884 88.6673 3.036C89.0513 3.188 89.3033 3.408 89.4233 3.696C89.5513 3.984 89.6153 4.384 89.6153 4.896V7.98L90.4313 8.34ZM85.1513 7.164C85.1513 7.556 85.2473 7.836 85.4393 8.004C85.6393 8.172 85.9993 8.256 86.5193 8.256C86.9033 8.256 87.2713 8.188 87.6233 8.052C87.9833 7.908 88.3113 7.712 88.6073 7.464V6.264C88.1593 6.136 87.6193 6.072 86.9873 6.072C86.2913 6.072 85.8113 6.16 85.5473 6.336C85.2833 6.512 85.1513 6.788 85.1513 7.164ZM97.9235 8.34V9H96.4955L96.1835 8.136C95.8475 8.472 95.4875 8.72 95.1035 8.88C94.7275 9.04 94.2915 9.12 93.7955 9.12C93.2515 9.12 92.8035 9.028 92.4515 8.844C92.1075 8.652 91.8475 8.332 91.6715 7.884C91.4955 7.428 91.4075 6.804 91.4075 6.012C91.4075 4.884 91.6235 4.068 92.0555 3.564C92.4875 3.06 93.1035 2.808 93.9035 2.808C94.2715 2.808 94.6315 2.86 94.9835 2.964C95.3355 3.068 95.7075 3.236 96.0995 3.468V1.5L95.2835 1.164V0.48H97.1075V7.98L97.9235 8.34ZM92.4635 6.108C92.4635 6.66 92.5155 7.092 92.6195 7.404C92.7315 7.716 92.8995 7.936 93.1235 8.064C93.3475 8.184 93.6395 8.244 93.9995 8.244C94.7435 8.244 95.4435 7.984 96.0995 7.464V4.176C95.5955 3.992 95.2115 3.864 94.9475 3.792C94.6915 3.72 94.4235 3.684 94.1435 3.684C93.5435 3.684 93.1115 3.884 92.8475 4.284C92.5915 4.676 92.4635 5.284 92.4635 6.108ZM101.848 2.808C102.664 2.808 103.324 3.064 103.828 3.576C104.34 4.08 104.596 4.832 104.596 5.832V6.312H99.8918C99.9318 6.848 100.028 7.26 100.18 7.548C100.34 7.828 100.568 8.024 100.864 8.136C101.168 8.248 101.584 8.304 102.112 8.304C102.872 8.304 103.624 8.212 104.368 8.028V8.892C104.056 8.972 103.692 9.036 103.276 9.084C102.86 9.14 102.464 9.168 102.088 9.168C101.024 9.168 100.216 8.928 99.6638 8.448C99.1118 7.968 98.8358 7.148 98.8358 5.988C98.8358 4.908 99.1078 4.108 99.6518 3.588C100.196 3.068 100.928 2.808 101.848 2.808ZM101.788 3.672C101.164 3.672 100.708 3.812 100.42 4.092C100.132 4.372 99.9598 4.828 99.9038 5.46H103.528C103.48 4.868 103.316 4.424 103.036 4.128C102.756 3.824 102.34 3.672 101.788 3.672ZM116.509 8.34V9H114.685V5.028C114.685 4.556 114.581 4.216 114.373 4.008C114.165 3.792 113.857 3.684 113.449 3.684C113.169 3.684 112.909 3.72 112.669 3.792C112.437 3.856 112.053 3.984 111.517 4.176V7.98L112.333 8.34V9H110.509V5.028C110.509 4.556 110.405 4.216 110.197 4.008C109.989 3.792 109.681 3.684 109.273 3.684C109.001 3.684 108.745 3.72 108.505 3.792C108.273 3.856 107.885 3.984 107.341 4.176V7.98L108.157 8.34V9H105.517V8.34L106.333 7.98V3.996L105.517 3.66V2.976H106.849L107.161 3.468C107.633 3.228 108.057 3.06 108.433 2.964C108.809 2.86 109.197 2.808 109.597 2.808C109.997 2.808 110.329 2.864 110.593 2.976C110.865 3.088 111.089 3.264 111.265 3.504C111.745 3.256 112.177 3.08 112.561 2.976C112.953 2.864 113.357 2.808 113.773 2.808C114.253 2.808 114.633 2.888 114.913 3.048C115.193 3.2 115.393 3.448 115.513 3.792C115.633 4.128 115.693 4.584 115.693 5.16V7.98L116.509 8.34ZM124.337 2.976V3.648L123.353 3.984L120.701 9.9C120.501 10.356 120.277 10.708 120.029 10.956C119.789 11.212 119.481 11.396 119.105 11.508C118.737 11.628 118.257 11.688 117.665 11.688H117.425V10.8C117.729 10.824 118.021 10.836 118.301 10.836C118.605 10.836 118.845 10.796 119.021 10.716C119.205 10.636 119.385 10.468 119.561 10.212C119.745 9.964 119.965 9.564 120.221 9.012L117.917 3.984L116.933 3.648V2.976H119.993V3.648L119.021 3.972L120.749 7.848L122.453 3.972L121.481 3.648V2.976H124.337Z" fill="black"/>
</svg>
